<svg xmlns="http://www.w3.org/2000/svg" id="svg1" version="1.1" viewBox="0 0 248.29559748427673 201.5568862275449" xml:space="preserve" style="max-height: 500px" width="248.29559748427673" height="201.5568862275449"><defs id="defs1"/>
  <path id="path1" d="m 221.95,51.29 c 0.15,2.17 0.15,4.34 0.15,6.53 0,66.73 -50.8,143.69 -143.69,143.69 v -0.04 C 50.97,201.51 24.1,193.65 1,178.83 c 3.99,0.48 8,0.72 12.02,0.73 22.74,0.02 44.83,-7.61 62.72,-21.66 -21.61,-0.41 -40.56,-14.5 -47.18,-35.07 7.57,1.46 15.37,1.16 22.8,-0.87 C 27.8,117.2 10.85,96.5 10.85,72.46 v -0.64 c 7.02,3.91 14.88,6.08 22.92,6.32 C 11.58,63.31 4.74,33.79 18.14,10.71 c 25.64,31.55 63.47,50.73 104.08,52.76 -4.07,-17.54 1.49,-35.92 14.61,-48.25 20.34,-19.12 52.33,-18.14 71.45,2.19 11.31,-2.23 22.15,-6.38 32.07,-12.26 -3.77,11.69 -11.66,21.62 -22.2,27.93 10.01,-1.18 19.79,-3.86 29,-7.95 -6.78,10.16 -15.32,19.01 -25.2,26.16 z" fill="#1d9bf0"/>
<path id="path1-7" stroke-width="0" d="M 401.36999,86.574354 477.17002,0.28595244 H 459.21028 L 393.36353,75.193557 340.81026,0.28595244 h -60.628 L 359.67069,113.5693 l -79.48843,90.479 h 17.95972 l 69.49342,-79.12332 55.51114,79.12332 h 60.628 z m -24.60647,27.989356 -8.06611,-11.28755 -64.07882,-89.730463 h 27.58984 l 51.72879,72.442789 8.03218,11.287548 67.2322,94.159266 h -27.58984 z"/></svg>